<?xml version="1.0" encoding="UTF-8" standalone="no"?>
<!-- Generator: Adobe Illustrator 16.0.4, SVG Export Plug-In . SVG Version: 6.00 Build 0)  -->

<svg
   xmlns:dc="http://purl.org/dc/elements/1.1/"
   xmlns:cc="http://creativecommons.org/ns#"
   xmlns:rdf="http://www.w3.org/1999/02/22-rdf-syntax-ns#"
   xmlns:svg="http://www.w3.org/2000/svg"
   xmlns="http://www.w3.org/2000/svg"
   xmlns:sodipodi="http://sodipodi.sourceforge.net/DTD/sodipodi-0.dtd"
   xmlns:inkscape="http://www.inkscape.org/namespaces/inkscape"
   version="1.1"
   id="Capa_1"
   x="0px"
   y="0px"
   width="32"
   height="32"
   viewBox="0 0 32 32"
   enable-background="new 0 0 64 64"
   xml:space="preserve"
   inkscape:version="0.48.4 r9939"
   sodipodi:docname="iconAnimal.svg"><metadata
     id="metadata9"><rdf:RDF><cc:Work
         rdf:about=""><dc:format>image/svg+xml</dc:format><dc:type
           rdf:resource="http://purl.org/dc/dcmitype/StillImage" /><dc:title></dc:title></cc:Work></rdf:RDF></metadata><defs
     id="defs7"><filter
       id="filter3011"
       inkscape:label="Invert"
       x="0"
       y="0"
       width="1"
       height="1"
       inkscape:menu="Color"
       inkscape:menu-tooltip="Invert colors"
       color-interpolation-filters="sRGB"><feColorMatrix
         id="feColorMatrix3013"
         type="saturate"
         values="1"
         result="fbSourceGraphic" /><feColorMatrix
         id="feColorMatrix3015"
         in="fbSourceGraphic"
         values="-1 0 0 0 1 0 -1 0 0 1 0 0 -1 0 1 0 0 0 1 0 "
         result="fbSourceGraphic" /><feColorMatrix
         result="fbSourceGraphicAlpha"
         in="fbSourceGraphic"
         values="0 0 0 -1 0 0 0 0 -1 0 0 0 0 -1 0 0 0 0 1 0"
         id="feColorMatrix2985" /><feColorMatrix
         id="feColorMatrix2987"
         type="saturate"
         values="1"
         result="fbSourceGraphic"
         in="fbSourceGraphic" /><feColorMatrix
         id="feColorMatrix2989"
         in="fbSourceGraphic"
         values="-1 0 0 0 1 0 -1 0 0 1 0 0 -1 0 1 0 0 0 1 0 " /></filter></defs><sodipodi:namedview
     pagecolor="#ffffff"
     bordercolor="#666666"
     borderopacity="1"
     objecttolerance="10"
     gridtolerance="10"
     guidetolerance="10"
     inkscape:pageopacity="0"
     inkscape:pageshadow="2"
     inkscape:window-width="1920"
     inkscape:window-height="1031"
     id="namedview5"
     showgrid="false"
     inkscape:zoom="3.6875"
     inkscape:cx="-37.924161"
     inkscape:cy="6.110882"
     inkscape:window-x="0"
     inkscape:window-y="27"
     inkscape:window-maximized="1"
     inkscape:current-layer="Capa_1"
     fit-margin-top="0"
     fit-margin-left="0"
     fit-margin-right="0"
     fit-margin-bottom="0" /><path
     d="m 46.046,42.998 c 2.054,3.234 3.022,4.951 3.022,6.742 0,3.537 -2.627,5.252 -6.166,5.252 -1.56,0 -2.567,-0.002 -5.112,-1.326 0,0 -1.649,-1.509 -5.508,-1.354 -3.895,-0.154 -5.545,1.373 -5.545,1.373 -2.545,1.323 -3.516,1.309 -5.074,1.309 -3.539,0 -6.168,-1.713 -6.168,-5.252 0,-1.791 0.971,-3.506 3.024,-6.742 0,0 3.881,-6.445 7.244,-9.477 2.43,-2.188 5.973,-2.18 5.973,-2.18 h 1.093 v -0.001 c 0,0 3.698,-0.009 5.976,2.181 3.259,3.142 7.241,9.476 7.241,9.475 z M 23.636,27.033 c 3.7,0 6.699,-4.674 6.699,-10.439 0,-5.765 -2.999,-10.439 -6.699,-10.439 -3.7,0 -6.699,4.674 -6.699,10.439 0,5.765 2.999,10.439 6.699,10.439 z m -6.42,10.11 c 2.727,-1.259 3.349,-5.723 1.388,-9.971 -1.961,-4.248 -5.761,-6.672 -8.488,-5.414 -2.727,1.258 -3.348,5.723 -1.388,9.971 1.961,4.248 5.761,6.671 8.488,5.414 z m 21.995,-10.11 c 3.7,0 6.7,-4.674 6.7,-10.439 0,-5.765 -3,-10.439 -6.7,-10.439 -3.7,0 -6.699,4.674 -6.699,10.439 0,5.765 2.999,10.439 6.699,10.439 z m 13.521,-5.276 c -2.728,-1.259 -6.527,1.165 -8.488,5.414 -1.961,4.249 -1.339,8.713 1.389,9.972 2.728,1.258 6.527,-1.166 8.488,-5.414 1.961,-4.248 1.339,-8.713 -1.389,-9.972 z"
     id="path3"
     style="filter:url(#filter3011)"
     inkscape:connector-curvature="0"
     transform="matrix(0.67112781,0,0,0.65521399,-5.0899809,-4.0328421)" /></svg>