<?xml version="1.0" encoding="UTF-8" standalone="no"?>
<!-- Generator: Adobe Illustrator 16.0.0, SVG Export Plug-In . SVG Version: 6.00 Build 0)  -->

<svg
   xmlns:dc="http://purl.org/dc/elements/1.1/"
   xmlns:cc="http://creativecommons.org/ns#"
   xmlns:rdf="http://www.w3.org/1999/02/22-rdf-syntax-ns#"
   xmlns:svg="http://www.w3.org/2000/svg"
   xmlns="http://www.w3.org/2000/svg"
   xmlns:sodipodi="http://sodipodi.sourceforge.net/DTD/sodipodi-0.dtd"
   xmlns:inkscape="http://www.inkscape.org/namespaces/inkscape"
   version="1.1"
   id="Layer_1"
   x="0px"
   y="0px"
   width="32"
   height="31.999998"
   viewBox="0 0 32 31.999998"
   xml:space="preserve"
   inkscape:version="0.48.4 r9939"
   sodipodi:docname="iconFlor2.svg"><metadata
     id="metadata13"><rdf:RDF><cc:Work
         rdf:about=""><dc:format>image/svg+xml</dc:format><dc:type
           rdf:resource="http://purl.org/dc/dcmitype/StillImage" /><dc:title></dc:title></cc:Work></rdf:RDF></metadata><defs
     id="defs11" /><sodipodi:namedview
     pagecolor="#ffffff"
     bordercolor="#666666"
     borderopacity="1"
     objecttolerance="10"
     gridtolerance="10"
     guidetolerance="10"
     inkscape:pageopacity="0"
     inkscape:pageshadow="2"
     inkscape:window-width="1920"
     inkscape:window-height="1030"
     id="namedview9"
     showgrid="false"
     inkscape:zoom="6.5555556"
     inkscape:cx="-12.970831"
     inkscape:cy="17.125541"
     inkscape:window-x="0"
     inkscape:window-y="28"
     inkscape:window-maximized="1"
     inkscape:current-layer="Layer_1"
     fit-margin-top="0"
     fit-margin-left="0"
     fit-margin-right="0"
     fit-margin-bottom="0" /><g
     id="g3"
     transform="matrix(1.9354058,0,0,1.1457214,-23.832587,-5.7377728)"><path
       style="fill:#010101"
       d="m 28.708,21.818 c -0.091,-0.071 -0.229,-0.2 -0.412,-0.305 -0.179,-0.105 -0.418,-0.269 -0.681,-0.361 -0.263,-0.1 -0.564,-0.19 -0.902,-0.264 -0.334,-0.062 -0.686,-0.079 -1.063,-0.082 -0.381,-0.005 -0.746,0.063 -1.136,0.138 -0.385,0.082 -0.751,0.213 -1.122,0.365 -0.356,0.165 -0.706,0.358 -1.034,0.577 -0.313,0.229 -0.629,0.467 -0.896,0.74 -0.273,0.271 -0.521,0.554 -0.727,0.859 -0.429,0.599 -0.709,1.257 -0.88,1.864 -0.063,0.235 -0.099,0.45 -0.133,0.664 -0.024,0.327 -0.05,0.665 -0.075,1.013 0,0.075 0,0.151 0.006,0.217 0.078,-0.09 0.163,-0.188 0.253,-0.293 0.462,-0.515 1.105,-1.173 1.812,-1.764 0.352,-0.294 0.725,-0.564 1.078,-0.807 0.186,-0.11 0.363,-0.218 0.534,-0.32 0.174,-0.09 0.339,-0.175 0.492,-0.253 0.158,-0.064 0.306,-0.122 0.435,-0.175 0.128,-0.058 0.248,-0.078 0.343,-0.108 0.19,-0.054 0.301,-0.084 0.301,-0.084 0,0 -0.106,0.039 -0.293,0.106 -0.092,0.037 -0.209,0.067 -0.33,0.136 -0.124,0.061 -0.264,0.13 -0.415,0.205 -0.145,0.089 -0.298,0.186 -0.466,0.286 -0.155,0.113 -0.321,0.232 -0.494,0.355 -0.332,0.264 -0.672,0.556 -0.993,0.873 -0.645,0.63 -1.22,1.321 -1.627,1.856 -0.114,0.151 -0.214,0.287 -0.302,0.407 0.116,0 0.256,0.007 0.415,-0.009 0.2,-0.014 0.455,-0.017 0.711,-0.049 0.257,-0.028 0.538,-0.066 0.822,-0.121 0.289,-0.05 0.573,-0.124 0.871,-0.202 0.295,-0.077 0.581,-0.181 0.868,-0.288 0.283,-0.118 0.563,-0.236 0.826,-0.381 0.263,-0.15 0.527,-0.287 0.768,-0.462 0.488,-0.33 0.929,-0.702 1.317,-1.117 0.198,-0.19 0.378,-0.427 0.555,-0.637 0.174,-0.208 0.34,-0.446 0.498,-0.663 0.157,-0.213 0.31,-0.429 0.451,-0.643 0.148,-0.221 0.277,-0.41 0.386,-0.568 0.115,-0.152 0.207,-0.32 0.274,-0.415 0.069,-0.109 0.105,-0.169 0.105,-0.169 0,0 -0.047,-0.047 -0.14,-0.121 z"
       id="path5"
       inkscape:connector-curvature="0" /><path
       style="fill:#010101"
       d="m 19.682,26.225 c 0.009,-0.065 0.03,-0.143 0.041,-0.21 0.099,-1.259 0.205,-2.311 0.306,-2.779 0.169,-0.785 0.317,-1.491 0.411,-2.103 1.221,-0.075 2.191,-1.08 2.191,-2.319 0,-0.152 -0.013,-0.313 -0.041,-0.481 0.074,0.092 0.148,0.188 0.224,0.265 0.913,0.91 2.392,0.91 3.303,0 0.883,-0.882 0.904,-2.287 0.082,-3.205 1.264,-0.029 2.281,-1.06 2.281,-2.33 0,-1.289 -1.048,-2.335 -2.336,-2.335 -0.104,0 -0.212,0.011 -0.321,0.022 0.06,-0.051 0.129,-0.102 0.181,-0.154 0.914,-0.911 0.914,-2.39 0,-3.304 -0.911,-0.911 -2.39,-0.911 -3.302,0 -0.07,0.07 -0.136,0.16 -0.203,0.247 0.004,-0.065 0.01,-0.134 0.01,-0.196 0,-1.29 -1.046,-2.335 -2.336,-2.335 -1.247,0 -2.254,0.979 -2.323,2.206 -0.916,-0.848 -2.342,-0.835 -3.234,0.058 -0.91,0.912 -0.91,2.391 0,3.303 0.103,0.101 0.226,0.2 0.352,0.295 -0.099,-0.011 -0.198,-0.019 -0.293,-0.019 -1.29,0 -2.335,1.045 -2.335,2.336 0,1.282 1.035,2.323 2.315,2.333 -0.885,0.914 -0.88,2.37 0.024,3.274 0.905,0.905 2.368,0.909 3.281,0.016 0,0.003 0,0.004 0,0.005 0,1.078 0.738,1.979 1.734,2.247 -0.091,0.579 -0.233,1.259 -0.396,2.02 -0.207,0.969 -0.436,2.042 -0.584,3.106 -0.005,-0.017 -0.005,-0.031 -0.01,-0.049 -0.123,-0.432 -0.324,-0.898 -0.626,-1.323 -0.146,-0.218 -0.322,-0.42 -0.516,-0.612 -0.189,-0.192 -0.415,-0.362 -0.637,-0.525 -0.233,-0.155 -0.481,-0.291 -0.734,-0.409 -0.265,-0.107 -0.524,-0.202 -0.798,-0.261 -0.275,-0.052 -0.536,-0.1 -0.805,-0.096 -0.271,0 -0.519,0.013 -0.756,0.057 -0.241,0.053 -0.458,0.116 -0.644,0.188 -0.186,0.067 -0.354,0.183 -0.482,0.258 -0.129,0.073 -0.229,0.166 -0.292,0.216 -0.065,0.054 -0.1,0.089 -0.1,0.089 0,0 0.025,0.041 0.074,0.119 0.048,0.067 0.113,0.187 0.196,0.295 0.076,0.111 0.169,0.247 0.274,0.403 0.099,0.152 0.207,0.306 0.319,0.457 0.114,0.153 0.229,0.323 0.354,0.471 0.123,0.149 0.255,0.316 0.395,0.452 0.273,0.294 0.587,0.56 0.935,0.793 0.172,0.125 0.356,0.223 0.545,0.328 0.188,0.104 0.386,0.188 0.587,0.271 0.204,0.075 0.407,0.149 0.616,0.204 0.211,0.057 0.414,0.108 0.62,0.144 0.203,0.039 0.4,0.066 0.584,0.085 0.182,0.023 0.362,0.026 0.504,0.036 0.095,0.008 0.172,0.006 0.242,0.006 -0.014,0.331 -0.011,4.675 0.009,5.153 h 0.75 c 0.048,-1.228 0.176,-3.722 0.329,-5.908 0,-0.021 -0.003,-0.041 -10e-4,-0.063 0,-0.211 0,-0.47 0.036,-0.742 z M 18.304,13.062 c 0,-1.123 0.913,-2.038 2.038,-2.038 1.124,0 2.037,0.915 2.037,2.038 0,1.123 -0.913,2.038 -2.037,2.038 -1.125,0 -2.038,-0.915 -2.038,-2.038 z m 0.259,14.654 c -0.05,-0.07 -0.103,-0.14 -0.166,-0.222 -0.287,-0.382 -0.697,-0.873 -1.156,-1.319 -0.226,-0.226 -0.468,-0.434 -0.704,-0.621 -0.123,-0.087 -0.241,-0.171 -0.351,-0.252 -0.119,-0.071 -0.229,-0.14 -0.332,-0.203 -0.107,-0.054 -0.206,-0.104 -0.293,-0.147 -0.087,-0.047 -0.171,-0.067 -0.235,-0.096 -0.131,-0.048 -0.208,-0.075 -0.208,-0.075 0,0 0.078,0.021 0.213,0.06 0.068,0.021 0.154,0.036 0.243,0.078 0.093,0.037 0.197,0.077 0.31,0.124 0.108,0.056 0.227,0.115 0.351,0.179 0.12,0.074 0.245,0.148 0.378,0.229 0.252,0.17 0.515,0.361 0.768,0.572 0.473,0.395 0.895,0.826 1.217,1.182 -0.014,0.171 -0.028,0.342 -0.035,0.511 z"
       id="path7"
       inkscape:connector-curvature="0" /></g></svg>