<?xml version="1.0" encoding="UTF-8" standalone="no"?>
<!-- Generator: Adobe Illustrator 16.0.4, SVG Export Plug-In . SVG Version: 6.00 Build 0)  -->

<svg
   xmlns:dc="http://purl.org/dc/elements/1.1/"
   xmlns:cc="http://creativecommons.org/ns#"
   xmlns:rdf="http://www.w3.org/1999/02/22-rdf-syntax-ns#"
   xmlns:svg="http://www.w3.org/2000/svg"
   xmlns="http://www.w3.org/2000/svg"
   xmlns:sodipodi="http://sodipodi.sourceforge.net/DTD/sodipodi-0.dtd"
   xmlns:inkscape="http://www.inkscape.org/namespaces/inkscape"
   version="1.1"
   id="Layer_1"
   x="0px"
   y="0px"
   width="32"
   height="32"
   viewBox="0 0 32 32"
   enable-background="new 0 0 512 512"
   xml:space="preserve"
   inkscape:version="0.48.4 r9939"
   sodipodi:docname="pista.svg"><metadata
     id="metadata15"><rdf:RDF><cc:Work
         rdf:about=""><dc:format>image/svg+xml</dc:format><dc:type
           rdf:resource="http://purl.org/dc/dcmitype/StillImage" /><dc:title></dc:title></cc:Work></rdf:RDF></metadata><defs
     id="defs13"><filter
       id="filter2992"
       inkscape:label="Invert"
       x="0"
       y="0"
       width="1"
       height="1"
       inkscape:menu="Color"
       inkscape:menu-tooltip="Invert colors"
       color-interpolation-filters="sRGB"><feColorMatrix
         id="feColorMatrix2994"
         type="saturate"
         values="1"
         result="fbSourceGraphic" /><feColorMatrix
         id="feColorMatrix2996"
         in="fbSourceGraphic"
         values="-1 0 0 0 1 0 -1 0 0 1 0 0 -1 0 1 0 0 0 1 0 "
         result="fbSourceGraphic" /><feColorMatrix
         result="fbSourceGraphicAlpha"
         in="fbSourceGraphic"
         values="0 0 0 -1 0 0 0 0 -1 0 0 0 0 -1 0 0 0 0 1 0"
         id="feColorMatrix2988" /><feColorMatrix
         id="feColorMatrix2990"
         type="saturate"
         values="1"
         result="fbSourceGraphic"
         in="fbSourceGraphic" /><feColorMatrix
         id="feColorMatrix2992"
         in="fbSourceGraphic"
         values="-1 0 0 0 1 0 -1 0 0 1 0 0 -1 0 1 0 0 0 1 0 " /></filter></defs><sodipodi:namedview
     pagecolor="#ffffff"
     bordercolor="#666666"
     borderopacity="1"
     objecttolerance="10"
     gridtolerance="10"
     guidetolerance="10"
     inkscape:pageopacity="0"
     inkscape:pageshadow="2"
     inkscape:window-width="1920"
     inkscape:window-height="1031"
     id="namedview11"
     showgrid="false"
     inkscape:zoom="0.4609375"
     inkscape:cx="-357.82204"
     inkscape:cy="6.8389846"
     inkscape:window-x="0"
     inkscape:window-y="27"
     inkscape:window-maximized="1"
     inkscape:current-layer="Layer_1"
     fit-margin-top="0"
     fit-margin-left="0"
     fit-margin-right="0"
     fit-margin-bottom="0" /><g
     id="g3"
     style="filter:url(#filter2992)"
     transform="matrix(0.06736842,0,0,0.06736842,-1.1452631,-0.3368421)"><path
       d="M 255,5 C 124,5 17,112 17,243 17,374 124,480 255,480 386,480 492,374 492,243 492,112 386,5 255,5 z m 0,432 C 148,437 61,350 61,243 61,136 148,49 255,49 c 107,0 194,87 194,194 0,107 -87,194 -194,194 z"
       id="path5"
       inkscape:connector-curvature="0" /><path
       d="m 253,94 c -80,0 -98,59 -98,82 0,12 10,21 22,21 12,0 22,-9 22,-21 0,-9 5,-39 54,-39 24,0 42,7 53,19 14,15 13,35 12,43 -3,23 -15,35 -38,35 -40,0 -49,22 -49,40 v 18 c 0,12 10,22 22,22 12,0 22,-10 22,-22 v -14 c 1,0 3,-1 5,-1 35,0 75,-19 81,-73 3,-29 -4,-57 -22,-77 -13,-15 -40,-33 -86,-33 z"
       id="path7"
       inkscape:connector-curvature="0" /><path
       d="m 253,336 c -15,0 -27,12 -27,27 0,15 12,27 27,27 15,0 27,-12 27,-27 0,-15 -12,-27 -27,-27 z"
       id="path9"
       inkscape:connector-curvature="0" /></g></svg>